<mxfile host="app.diagrams.net" modified="2022-07-01T11:24:16.166Z" agent="5.0 (X11; Linux x86_64) AppleWebKit/537.36 (KHTML, like Gecko) Chrome/102.0.0.0 Safari/537.36" etag="3xDFTC_ZW68aPkCc_9uT" version="20.0.4" type="github">
  <diagram name="Page-1" id="e7e014a7-5840-1c2e-5031-d8a46d1fe8dd">
    <mxGraphModel dx="1422" dy="786" grid="1" gridSize="10" guides="1" tooltips="1" connect="1" arrows="1" fold="1" page="1" pageScale="1" pageWidth="1169" pageHeight="826" background="none" math="0" shadow="0">
      <root>
        <mxCell id="0" />
        <mxCell id="1" parent="0" />
        <mxCell id="mGE_bqM_TfaucegcOU1c-41" value="Conta corrente" style="swimlane;fontStyle=1;align=center;verticalAlign=middle;childLayout=stackLayout;horizontal=1;startSize=29;horizontalStack=0;resizeParent=1;resizeParentMax=0;resizeLast=0;collapsible=0;marginBottom=0;html=1;" vertex="1" parent="1">
          <mxGeometry x="700" y="250" width="140" height="79" as="geometry" />
        </mxCell>
        <mxCell id="mGE_bqM_TfaucegcOU1c-42" value="&amp;lt;&amp;lt;stereotype1&amp;gt;&amp;gt;" style="text;html=1;strokeColor=none;fillColor=none;align=center;verticalAlign=middle;spacingLeft=4;spacingRight=4;overflow=hidden;rotatable=0;points=[[0,0.5],[1,0.5]];portConstraint=eastwest;" vertex="1" parent="mGE_bqM_TfaucegcOU1c-41">
          <mxGeometry y="29" width="140" height="25" as="geometry" />
        </mxCell>
        <mxCell id="mGE_bqM_TfaucegcOU1c-43" value="stereotype property 1" style="text;html=1;strokeColor=none;fillColor=none;align=left;verticalAlign=middle;spacingLeft=4;spacingRight=4;overflow=hidden;rotatable=0;points=[[0,0.5],[1,0.5]];portConstraint=eastwest;" vertex="1" parent="mGE_bqM_TfaucegcOU1c-41">
          <mxGeometry y="54" width="140" height="25" as="geometry" />
        </mxCell>
        <mxCell id="mGE_bqM_TfaucegcOU1c-44" value="Fachada&amp;nbsp;" style="swimlane;fontStyle=1;align=center;verticalAlign=middle;childLayout=stackLayout;horizontal=1;startSize=29;horizontalStack=0;resizeParent=1;resizeParentMax=0;resizeLast=0;collapsible=0;marginBottom=0;html=1;" vertex="1" parent="1">
          <mxGeometry x="410" y="343" width="140" height="100" as="geometry" />
        </mxCell>
        <mxCell id="mGE_bqM_TfaucegcOU1c-45" value="&amp;lt;&amp;lt;stereotype1&amp;gt;&amp;gt;" style="text;html=1;strokeColor=none;fillColor=none;align=center;verticalAlign=middle;spacingLeft=4;spacingRight=4;overflow=hidden;rotatable=0;points=[[0,0.5],[1,0.5]];portConstraint=eastwest;" vertex="1" parent="mGE_bqM_TfaucegcOU1c-44">
          <mxGeometry y="29" width="140" height="25" as="geometry" />
        </mxCell>
        <mxCell id="mGE_bqM_TfaucegcOU1c-46" value="- Criar conta&lt;br&gt;- Remover conta&amp;nbsp;" style="text;html=1;strokeColor=none;fillColor=none;align=left;verticalAlign=middle;spacingLeft=4;spacingRight=4;overflow=hidden;rotatable=0;points=[[0,0.5],[1,0.5]];portConstraint=eastwest;" vertex="1" parent="mGE_bqM_TfaucegcOU1c-44">
          <mxGeometry y="54" width="140" height="46" as="geometry" />
        </mxCell>
        <mxCell id="mGE_bqM_TfaucegcOU1c-47" value="Conta poupanÃ§a&amp;nbsp;" style="swimlane;fontStyle=1;align=center;verticalAlign=middle;childLayout=stackLayout;horizontal=1;startSize=29;horizontalStack=0;resizeParent=1;resizeParentMax=0;resizeLast=0;collapsible=0;marginBottom=0;html=1;" vertex="1" parent="1">
          <mxGeometry x="700" y="430" width="140" height="79" as="geometry" />
        </mxCell>
        <mxCell id="mGE_bqM_TfaucegcOU1c-48" value="&amp;lt;&amp;lt;stereotype1&amp;gt;&amp;gt;" style="text;html=1;strokeColor=none;fillColor=none;align=center;verticalAlign=middle;spacingLeft=4;spacingRight=4;overflow=hidden;rotatable=0;points=[[0,0.5],[1,0.5]];portConstraint=eastwest;" vertex="1" parent="mGE_bqM_TfaucegcOU1c-47">
          <mxGeometry y="29" width="140" height="25" as="geometry" />
        </mxCell>
        <mxCell id="mGE_bqM_TfaucegcOU1c-49" value="stereotype property 1" style="text;html=1;strokeColor=none;fillColor=none;align=left;verticalAlign=middle;spacingLeft=4;spacingRight=4;overflow=hidden;rotatable=0;points=[[0,0.5],[1,0.5]];portConstraint=eastwest;" vertex="1" parent="mGE_bqM_TfaucegcOU1c-47">
          <mxGeometry y="54" width="140" height="25" as="geometry" />
        </mxCell>
        <mxCell id="mGE_bqM_TfaucegcOU1c-50" value="Database" style="shape=cylinder3;whiteSpace=wrap;html=1;boundedLbl=1;backgroundOutline=1;size=15;" vertex="1" parent="1">
          <mxGeometry x="750" y="590" width="60" height="80" as="geometry" />
        </mxCell>
        <mxCell id="mGE_bqM_TfaucegcOU1c-52" style="edgeStyle=orthogonalEdgeStyle;rounded=0;orthogonalLoop=1;jettySize=auto;html=1;entryX=1;entryY=0;entryDx=0;entryDy=52.5;entryPerimeter=0;" edge="1" parent="1" source="mGE_bqM_TfaucegcOU1c-43" target="mGE_bqM_TfaucegcOU1c-50">
          <mxGeometry relative="1" as="geometry" />
        </mxCell>
        <mxCell id="mGE_bqM_TfaucegcOU1c-53" style="edgeStyle=orthogonalEdgeStyle;rounded=0;orthogonalLoop=1;jettySize=auto;html=1;entryX=1;entryY=0.5;entryDx=0;entryDy=0;entryPerimeter=0;" edge="1" parent="1" source="mGE_bqM_TfaucegcOU1c-49" target="mGE_bqM_TfaucegcOU1c-50">
          <mxGeometry relative="1" as="geometry" />
        </mxCell>
        <mxCell id="mGE_bqM_TfaucegcOU1c-54" style="edgeStyle=orthogonalEdgeStyle;rounded=0;orthogonalLoop=1;jettySize=auto;html=1;entryX=0;entryY=0.5;entryDx=0;entryDy=0;" edge="1" parent="1" source="mGE_bqM_TfaucegcOU1c-45" target="mGE_bqM_TfaucegcOU1c-42">
          <mxGeometry relative="1" as="geometry" />
        </mxCell>
        <mxCell id="mGE_bqM_TfaucegcOU1c-55" style="edgeStyle=orthogonalEdgeStyle;rounded=0;orthogonalLoop=1;jettySize=auto;html=1;entryX=0;entryY=0.5;entryDx=0;entryDy=0;" edge="1" parent="1" source="mGE_bqM_TfaucegcOU1c-46" target="mGE_bqM_TfaucegcOU1c-48">
          <mxGeometry relative="1" as="geometry" />
        </mxCell>
        <mxCell id="mGE_bqM_TfaucegcOU1c-61" style="edgeStyle=orthogonalEdgeStyle;rounded=0;orthogonalLoop=1;jettySize=auto;html=1;exitX=0.5;exitY=0.5;exitDx=0;exitDy=0;exitPerimeter=0;entryX=-0.008;entryY=0.348;entryDx=0;entryDy=0;entryPerimeter=0;" edge="1" parent="1" source="mGE_bqM_TfaucegcOU1c-56" target="mGE_bqM_TfaucegcOU1c-60">
          <mxGeometry relative="1" as="geometry" />
        </mxCell>
        <mxCell id="mGE_bqM_TfaucegcOU1c-56" value="Actor" style="shape=umlActor;verticalLabelPosition=bottom;verticalAlign=top;html=1;outlineConnect=0;" vertex="1" parent="1">
          <mxGeometry x="130" y="390" width="30" height="60" as="geometry" />
        </mxCell>
        <mxCell id="mGE_bqM_TfaucegcOU1c-58" value="Gui" style="swimlane;fontStyle=1;align=center;verticalAlign=middle;childLayout=stackLayout;horizontal=1;startSize=29;horizontalStack=0;resizeParent=1;resizeParentMax=0;resizeLast=0;collapsible=0;marginBottom=0;html=1;" vertex="1" parent="1">
          <mxGeometry x="230" y="350" width="130" height="100" as="geometry" />
        </mxCell>
        <mxCell id="mGE_bqM_TfaucegcOU1c-59" value="&amp;lt;&amp;lt;stereotype1&amp;gt;&amp;gt;" style="text;html=1;strokeColor=none;fillColor=none;align=center;verticalAlign=middle;spacingLeft=4;spacingRight=4;overflow=hidden;rotatable=0;points=[[0,0.5],[1,0.5]];portConstraint=eastwest;" vertex="1" parent="mGE_bqM_TfaucegcOU1c-58">
          <mxGeometry y="29" width="130" height="25" as="geometry" />
        </mxCell>
        <mxCell id="mGE_bqM_TfaucegcOU1c-60" value="- Criar conta&lt;br&gt;- Remover conta&amp;nbsp;" style="text;html=1;strokeColor=none;fillColor=none;align=left;verticalAlign=middle;spacingLeft=4;spacingRight=4;overflow=hidden;rotatable=0;points=[[0,0.5],[1,0.5]];portConstraint=eastwest;" vertex="1" parent="mGE_bqM_TfaucegcOU1c-58">
          <mxGeometry y="54" width="130" height="46" as="geometry" />
        </mxCell>
        <mxCell id="mGE_bqM_TfaucegcOU1c-62" value="" style="edgeStyle=orthogonalEdgeStyle;rounded=0;orthogonalLoop=1;jettySize=auto;html=1;" edge="1" parent="1" source="mGE_bqM_TfaucegcOU1c-60" target="mGE_bqM_TfaucegcOU1c-46">
          <mxGeometry relative="1" as="geometry" />
        </mxCell>
      </root>
    </mxGraphModel>
  </diagram>
</mxfile>
